<svg width="145" height="442" viewBox="0 0 145 442" fill="none" xmlns="http://www.w3.org/2000/svg">
<path d="M76.1765 304.198C114.121 304.198 144.853 335.018 144.853 373.071C144.853 411.125 114.121 441.945 76.1765 441.945C38.232 441.945 7.49951 411.084 7.49951 373.071V305.102L76.1765 304.198Z" fill="url(#paint0_linear_66_1003)"/>
<path d="M18.6451 314.389H76.2174C108.466 314.389 134.732 340.689 134.732 373.071C134.732 405.454 108.507 431.754 76.2174 431.754C43.9277 431.754 17.7026 405.454 17.7026 373.071L18.6451 314.389ZM76.2174 319.485C46.7551 319.485 22.7837 343.525 22.7837 373.071C22.7837 402.618 46.7551 426.658 76.2174 426.658C105.68 426.658 129.651 402.618 129.651 373.071C129.651 343.525 105.68 319.485 76.2174 319.485Z" fill="white" stroke="white" stroke-miterlimit="10"/>
<path d="M9.90233 305L9.90234 10" stroke="white" stroke-miterlimit="10"/>
<path d="M19.5877 10.3695C19.5877 5.19161 15.4081 1 10.245 1C5.08197 1 0.902344 5.19161 0.902344 10.3695C0.902344 15.5474 5.08197 19.739 10.245 19.739C15.4081 19.739 19.5877 15.5474 19.5877 10.3695Z" fill="white" stroke="white" stroke-miterlimit="10"/>
<path d="M16.4735 10.3695C16.4735 6.91758 13.6871 4.12317 10.2451 4.12317C6.80302 4.12317 4.0166 6.91758 4.0166 10.3695C4.0166 13.8214 6.80302 16.6158 10.2451 16.6158C13.6871 16.6158 16.4735 13.8214 16.4735 10.3695Z" fill="white"/>
<path d="M75.5158 399.329C72.7851 399.329 70.4384 398.967 68.4758 398.241C66.5558 397.473 64.9771 396.492 63.7398 395.297C62.5451 394.103 61.6704 392.801 61.1158 391.393C60.5611 389.943 60.2838 388.556 60.2838 387.233C60.2838 385.783 60.6251 384.823 61.3078 384.353C62.0331 383.841 63.2704 383.585 65.0198 383.585C67.0678 383.585 68.4331 383.841 69.1158 384.353C69.7984 384.823 70.1398 385.676 70.1398 386.913C70.1398 387.681 70.2891 388.3 70.5878 388.769C70.9291 389.239 71.3558 389.623 71.8678 389.921C72.4224 390.177 73.0411 390.369 73.7238 390.497C74.4064 390.583 75.1104 390.625 75.8358 390.625C78.0118 390.625 79.5264 390.199 80.3798 389.345C81.2758 388.449 81.7238 386.956 81.7238 384.865V383.649C81.7238 381.516 81.1264 380.129 79.9318 379.489C78.7798 378.849 77.3291 378.529 75.5798 378.529C74.5131 378.529 73.7664 378.124 73.3398 377.313C72.9131 376.503 72.6998 375.628 72.6998 374.689C72.6998 373.708 72.9131 372.833 73.3398 372.065C73.7664 371.255 74.5131 370.849 75.5798 370.849C76.3904 370.849 77.1798 370.764 77.9478 370.593C78.7158 370.38 79.3344 369.889 79.8038 369.121C80.3158 368.311 80.5718 367.052 80.5718 365.345C80.5718 363.468 80.1024 362.231 79.1638 361.633C78.2678 361.036 77.1584 360.737 75.8358 360.737C75.0678 360.737 74.3851 360.801 73.7878 360.929C73.1904 361.015 72.6784 361.185 72.2518 361.441C71.8678 361.697 71.5691 362.039 71.3558 362.465C71.1851 362.849 71.0998 363.361 71.0998 364.001C71.0998 365.068 70.7798 365.943 70.1398 366.625C69.5424 367.308 68.3051 367.649 66.4278 367.649C64.8918 367.649 63.7611 367.543 63.0358 367.329C62.3104 367.073 61.8198 366.647 61.5638 366.049C61.3504 365.452 61.2438 364.641 61.2438 363.617C61.2438 362.38 61.4784 361.1 61.9478 359.777C62.4598 358.412 63.2704 357.153 64.3798 356.001C65.5318 354.849 67.0464 353.932 68.9238 353.249C70.8011 352.524 73.1051 352.161 75.8358 352.161C78.5664 352.161 80.9984 352.524 83.1318 353.249C85.2651 353.975 86.9504 355.191 88.1878 356.897C89.4678 358.561 90.1078 360.844 90.1078 363.745C90.1078 366.092 89.6811 368.247 88.8278 370.209C88.0171 372.172 86.8011 373.516 85.1798 374.241C87.0571 374.924 88.6144 376.012 89.8518 377.505C91.0891 378.999 91.7078 381.047 91.7078 383.649V384.865C91.7078 388.364 90.9824 391.18 89.5318 393.313C88.0811 395.404 86.1184 396.94 83.6438 397.921C81.2118 398.86 78.5024 399.329 75.5158 399.329Z" fill="#354B99"/>
<defs>
<linearGradient id="paint0_linear_66_1003" x1="135.265" y1="433.192" x2="4.37464" y2="300.668" gradientUnits="userSpaceOnUse">
<stop stop-color="white"/>
<stop offset="0.23" stop-color="#F9F9FE"/>
<stop offset="0.5" stop-color="#EBEAFE"/>
<stop offset="0.8" stop-color="#D2D2FE"/>
<stop offset="1" stop-color="#BFBEFE"/>
</linearGradient>
</defs>
</svg>
