<svg width="145" height="442" viewBox="0 0 145 442" fill="none" xmlns="http://www.w3.org/2000/svg">
<path d="M76.2741 304.198C114.219 304.198 144.951 335.018 144.951 373.071C144.951 411.125 114.219 441.945 76.2741 441.945C38.3297 441.945 7.59717 411.084 7.59717 373.071V305.102L76.2741 304.198Z" fill="url(#paint0_linear_66_951)"/>
<path d="M18.7428 314.389H76.315C108.564 314.389 134.83 340.689 134.83 373.071C134.83 405.454 108.605 431.754 76.315 431.754C44.0254 431.754 17.8003 405.454 17.8003 373.071L18.7428 314.389ZM76.315 319.485C46.8528 319.485 22.8814 343.525 22.8814 373.071C22.8814 402.618 46.8528 426.658 76.315 426.658C105.777 426.658 129.749 402.618 129.749 373.071C129.749 343.525 105.777 319.485 76.315 319.485Z" fill="white" stroke="white" stroke-miterlimit="10"/>
<path d="M9.99999 305L10 10" stroke="white" stroke-miterlimit="10"/>
<path d="M19.6854 10.3695C19.6854 5.19161 15.5058 1 10.3427 1C5.17962 1 1 5.19161 1 10.3695C1 15.5474 5.17962 19.739 10.3427 19.739C15.5058 19.739 19.6854 15.5474 19.6854 10.3695Z" fill="white" stroke="white" stroke-miterlimit="10"/>
<path d="M16.5712 10.3695C16.5712 6.91758 13.7848 4.12317 10.3427 4.12317C6.90067 4.12317 4.11426 6.91758 4.11426 10.3695C4.11426 13.8214 6.90067 16.6158 10.3427 16.6158C13.7848 16.6158 16.5712 13.8214 16.5712 10.3695Z" fill="white"/>
<path d="M77.7197 398.945C76.4823 398.945 75.3303 398.689 74.2637 398.177C73.2397 397.665 72.7277 396.897 72.7277 395.873V363.297L70.8717 364.449C70.573 364.62 70.2743 364.748 69.9757 364.833C69.7197 364.919 69.485 364.961 69.2717 364.961C68.333 364.961 67.565 364.556 66.9677 363.745C66.413 362.892 66.1357 361.975 66.1357 360.993C66.1357 360.311 66.285 359.671 66.5837 359.073C66.8823 358.476 67.3517 357.985 67.9917 357.601L76.4397 352.481C76.6957 352.311 76.973 352.204 77.2717 352.161C77.613 352.076 77.9543 352.033 78.2957 352.033C79.3197 352.033 80.301 352.311 81.2397 352.865C82.221 353.42 82.7117 354.188 82.7117 355.169V395.873C82.7117 396.897 82.1783 397.665 81.1117 398.177C80.0877 398.689 78.957 398.945 77.7197 398.945Z" fill="#354B99"/>
<defs>
<linearGradient id="paint0_linear_66_951" x1="135.363" y1="433.192" x2="4.47229" y2="300.668" gradientUnits="userSpaceOnUse">
<stop stop-color="white"/>
<stop offset="0.23" stop-color="#F9F9FE"/>
<stop offset="0.5" stop-color="#EBEAFE"/>
<stop offset="0.8" stop-color="#D2D2FE"/>
<stop offset="1" stop-color="#BFBEFE"/>
</linearGradient>
</defs>
</svg>
