<svg width="145" height="442" viewBox="0 0 145 442" fill="none" xmlns="http://www.w3.org/2000/svg">
<path d="M76.2253 137.748C114.17 137.748 144.902 106.927 144.902 68.8739C144.902 30.8206 114.17 1.52588e-05 76.2253 1.52588e-05C38.2809 1.52588e-05 7.54834 30.8617 7.54834 68.8739V136.844L76.2253 137.748Z" fill="url(#paint0_linear_66_993)"/>
<path d="M18.6939 127.556H76.2662C108.515 127.556 134.781 101.256 134.781 68.8739C134.781 36.4917 108.556 10.1914 76.2662 10.1914C43.9766 10.1914 17.7515 36.4917 17.7515 68.8739L18.6939 127.556ZM76.2662 122.461C46.8039 122.461 22.8326 98.4207 22.8326 68.8739C22.8326 39.3272 46.8039 15.2871 76.2662 15.2871C105.728 15.2871 129.7 39.3272 129.7 68.8739C129.7 98.4207 105.728 122.461 76.2662 122.461Z" fill="white" stroke="white" stroke-miterlimit="10"/>
<path d="M9.95116 136.945L9.95117 431.945" stroke="white" stroke-miterlimit="10"/>
<path d="M19.6365 431.576C19.6365 436.754 15.4569 440.945 10.2939 440.945C5.1308 440.945 0.951172 436.754 0.951172 431.576C0.951172 426.398 5.1308 422.206 10.2939 422.206C15.4569 422.206 19.6365 426.398 19.6365 431.576Z" fill="white" stroke="white" stroke-miterlimit="10"/>
<path d="M16.5223 431.576C16.5223 435.028 13.7359 437.822 10.2939 437.822C6.85185 437.822 4.06543 435.028 4.06543 431.576C4.06543 428.124 6.85185 425.33 10.2939 425.33C13.7359 425.33 16.5223 428.124 16.5223 431.576Z" fill="white"/>
<path d="M65.7615 94C64.8655 94 63.9055 93.7227 62.8815 93.168C61.9002 92.6133 61.4095 91.8667 61.4095 90.928V84.72C61.4095 83.056 61.8788 81.4987 62.8175 80.048C63.7988 78.5547 65.0575 77.168 66.5935 75.888C68.1295 74.5653 69.7508 73.2853 71.4575 72.048C73.2068 70.8107 74.8282 69.5947 76.3215 68.4C77.8575 67.1627 79.1162 65.9253 80.0975 64.688C81.0788 63.4507 81.5695 62.1493 81.5695 60.784C81.5695 60.1013 81.3988 59.4187 81.0575 58.736C80.7588 58.0107 80.2468 57.4133 79.5215 56.944C78.8388 56.4747 77.9002 56.24 76.7055 56.24C75.4255 56.24 74.2948 56.6027 73.3135 57.328C72.3748 58.0533 71.9055 59.2907 71.9055 61.04C71.9055 61.9787 71.4362 62.832 70.4975 63.6C69.5588 64.3253 68.2788 64.688 66.6575 64.688C65.3775 64.688 64.3108 64.3253 63.4575 63.6C62.6042 62.8747 62.1775 61.5093 62.1775 59.504C62.1775 56.9013 62.8602 54.6827 64.2255 52.848C65.6335 51.0133 67.4468 49.6267 69.6655 48.688C71.8842 47.7067 74.2095 47.216 76.6415 47.216C79.1162 47.216 81.4842 47.728 83.7455 48.752C86.0495 49.776 87.9268 51.2693 89.3775 53.232C90.8282 55.1947 91.5535 57.6053 91.5535 60.464C91.5535 62.768 91.0628 64.8373 90.0815 66.672C89.1428 68.5067 87.9268 70.1707 86.4335 71.664C84.9402 73.1147 83.3402 74.4373 81.6335 75.632C79.9695 76.8267 78.3908 77.936 76.8975 78.96C75.4042 79.9413 74.1668 80.9013 73.1855 81.84C72.2468 82.7787 71.7775 83.7387 71.7775 84.72V85.296H88.5455C89.3562 85.296 90.0602 85.7227 90.6575 86.576C91.2548 87.4293 91.5535 88.432 91.5535 89.584C91.5535 90.736 91.2548 91.76 90.6575 92.656C90.0602 93.552 89.3562 94 88.5455 94H65.7615Z" fill="#354B99"/>
<defs>
<linearGradient id="paint0_linear_66_993" x1="135.314" y1="8.75309" x2="4.42347" y2="141.277" gradientUnits="userSpaceOnUse">
<stop stop-color="white"/>
<stop offset="0.23" stop-color="#F9F9FE"/>
<stop offset="0.5" stop-color="#EBEAFE"/>
<stop offset="0.8" stop-color="#D2D2FE"/>
<stop offset="1" stop-color="#BFBEFE"/>
</linearGradient>
</defs>
</svg>
