<svg width="145" height="442" viewBox="0 0 145 442" fill="none" xmlns="http://www.w3.org/2000/svg">
<path d="M76.0788 304.198C114.023 304.198 144.756 335.018 144.756 373.071C144.756 411.125 114.023 441.945 76.0788 441.945C38.1344 441.945 7.40186 411.084 7.40186 373.071V305.102L76.0788 304.198Z" fill="url(#paint0_linear_66_1023)"/>
<path d="M18.5474 314.389H76.1197C108.368 314.389 134.634 340.689 134.634 373.071C134.634 405.454 108.409 431.754 76.1197 431.754C43.8301 431.754 17.605 405.454 17.605 373.071L18.5474 314.389ZM76.1197 319.485C46.6575 319.485 22.6861 343.525 22.6861 373.071C22.6861 402.618 46.6575 426.658 76.1197 426.658C105.582 426.658 129.553 402.618 129.553 373.071C129.553 343.525 105.582 319.485 76.1197 319.485Z" fill="white" stroke="white" stroke-miterlimit="10"/>
<path d="M9.80467 305L9.80469 10" stroke="white" stroke-miterlimit="10"/>
<path d="M19.4901 10.3695C19.4901 5.19161 15.3104 1 10.1474 1C4.98431 1 0.804688 5.19161 0.804688 10.3695C0.804688 15.5474 4.98431 19.739 10.1474 19.739C15.3104 19.739 19.4901 15.5474 19.4901 10.3695Z" fill="white" stroke="white" stroke-miterlimit="10"/>
<path d="M16.3759 10.3695C16.3759 6.91758 13.5894 4.12317 10.1474 4.12317C6.70536 4.12317 3.91895 6.91758 3.91895 10.3695C3.91895 13.8214 6.70536 16.6158 10.1474 16.6158C13.5894 16.6158 16.3759 13.8214 16.3759 10.3695Z" fill="white"/>
<path d="M75.7084 399.329C72.295 399.329 69.3937 398.753 67.0044 397.601C64.6577 396.449 62.887 394.977 61.6924 393.185C60.4977 391.351 59.9004 389.431 59.9004 387.425C59.9004 385.676 60.327 384.503 61.1804 383.905C62.0764 383.308 63.3137 383.009 64.8924 383.009C67.0684 383.009 68.4337 383.372 68.9884 384.097C69.5857 384.823 69.8844 385.697 69.8844 386.721C69.8844 387.575 70.119 388.3 70.5884 388.897C71.1004 389.452 71.783 389.879 72.6364 390.177C73.4897 390.476 74.4284 390.625 75.4524 390.625C77.287 390.625 78.7164 390.156 79.7404 389.217C80.7644 388.236 81.2764 386.7 81.2764 384.609V383.393C81.2764 381.26 80.7644 379.681 79.7404 378.657C78.7164 377.633 77.3297 377.121 75.5804 377.121H65.8524C64.4017 377.121 63.399 376.78 62.8444 376.097C62.2897 375.372 62.0124 374.412 62.0124 373.217C62.0124 372.876 62.0124 372.577 62.0124 372.321C62.055 372.023 62.0977 371.703 62.1404 371.361L63.8684 355.233C63.9537 354.252 64.1244 353.505 64.3804 352.993C64.679 352.439 65.1057 352.161 65.6604 352.161H86.0764C87.0577 352.161 87.783 352.609 88.2524 353.505C88.7217 354.401 88.9564 355.404 88.9564 356.513C88.9564 357.58 88.7217 358.583 88.2524 359.521C87.783 360.417 87.0577 360.865 86.0764 360.865H72.0604L71.4204 369.441H75.5804C78.5244 369.441 81.1697 369.889 83.5164 370.785C85.9057 371.681 87.783 373.153 89.1484 375.201C90.5564 377.249 91.2604 379.98 91.2604 383.393V384.609C91.2604 388.151 90.5564 391.009 89.1484 393.185C87.7404 395.361 85.863 396.94 83.5164 397.921C81.1697 398.86 78.567 399.329 75.7084 399.329Z" fill="#354B99"/>
<defs>
<linearGradient id="paint0_linear_66_1023" x1="135.167" y1="433.192" x2="4.27698" y2="300.668" gradientUnits="userSpaceOnUse">
<stop stop-color="white"/>
<stop offset="0.23" stop-color="#F9F9FE"/>
<stop offset="0.5" stop-color="#EBEAFE"/>
<stop offset="0.8" stop-color="#D2D2FE"/>
<stop offset="1" stop-color="#BFBEFE"/>
</linearGradient>
</defs>
</svg>
