<svg width="145" height="442" viewBox="0 0 145 442" fill="none" xmlns="http://www.w3.org/2000/svg">
<path d="M76.1276 137.748C114.072 137.748 144.805 106.927 144.805 68.8739C144.805 30.8206 114.072 1.52588e-05 76.1276 1.52588e-05C38.1832 1.52588e-05 7.45068 30.8617 7.45068 68.8739V136.844L76.1276 137.748Z" fill="url(#paint0_linear_66_1013)"/>
<path d="M18.5963 127.556H76.1685C108.417 127.556 134.683 101.256 134.683 68.8739C134.683 36.4917 108.458 10.1914 76.1685 10.1914C43.8789 10.1914 17.6538 36.4917 17.6538 68.8739L18.5963 127.556ZM76.1685 122.461C46.7063 122.461 22.7349 98.4207 22.7349 68.8739C22.7349 39.3272 46.7063 15.2871 76.1685 15.2871C105.631 15.2871 129.602 39.3272 129.602 68.8739C129.602 98.4207 105.631 122.461 76.1685 122.461Z" fill="white" stroke="white" stroke-miterlimit="10"/>
<path d="M9.8535 136.945L9.85352 431.945" stroke="white" stroke-miterlimit="10"/>
<path d="M19.5389 431.576C19.5389 436.754 15.3593 440.945 10.1962 440.945C5.03314 440.945 0.853516 436.754 0.853516 431.576C0.853516 426.398 5.03314 422.206 10.1962 422.206C15.3593 422.206 19.5389 426.398 19.5389 431.576Z" fill="white" stroke="white" stroke-miterlimit="10"/>
<path d="M16.4247 431.576C16.4247 435.028 13.6383 437.822 10.1962 437.822C6.75419 437.822 3.96777 435.028 3.96777 431.576C3.96777 428.124 6.75419 425.33 10.1962 425.33C13.6383 425.33 16.4247 428.124 16.4247 431.576Z" fill="white"/>
<path d="M81.9682 94C80.7309 94 79.5789 93.744 78.5122 93.232C77.4882 92.72 76.9762 91.952 76.9762 90.928V84.144H62.0002C61.0615 84.144 60.2722 83.8453 59.6322 83.248C58.9922 82.6507 58.6722 81.7973 58.6722 80.688C58.6722 80.432 58.7149 80.1333 58.8002 79.792C58.8855 79.4507 59.0135 79.1093 59.1842 78.768L73.9682 49.776C74.4375 48.8373 75.0349 48.176 75.7602 47.792C76.5282 47.408 77.3175 47.216 78.1282 47.216C78.7255 47.216 79.4082 47.3653 80.1762 47.664C80.9442 47.9627 81.6269 48.4107 82.2242 49.008C82.8215 49.5627 83.1202 50.224 83.1202 50.992C83.1202 51.2907 83.0135 51.696 82.8002 52.208L71.4722 74.928H76.9762V70.448C76.9762 69.3813 77.4882 68.6133 78.5122 68.144C79.5789 67.6747 80.7309 67.44 81.9682 67.44C83.2055 67.44 84.3362 67.6747 85.3602 68.144C86.4269 68.6133 86.9602 69.3813 86.9602 70.448V74.928H89.7122C90.7362 74.928 91.5042 75.4187 92.0162 76.4C92.5282 77.3387 92.7842 78.384 92.7842 79.536C92.7842 80.688 92.4642 81.7547 91.8242 82.736C91.1842 83.6747 90.4802 84.144 89.7122 84.144H86.9602V90.928C86.9602 91.952 86.4269 92.72 85.3602 93.232C84.3362 93.744 83.2055 94 81.9682 94Z" fill="#354B99"/>
<defs>
<linearGradient id="paint0_linear_66_1013" x1="135.216" y1="8.75309" x2="4.32581" y2="141.277" gradientUnits="userSpaceOnUse">
<stop stop-color="white"/>
<stop offset="0.23" stop-color="#F9F9FE"/>
<stop offset="0.5" stop-color="#EBEAFE"/>
<stop offset="0.8" stop-color="#D2D2FE"/>
<stop offset="1" stop-color="#BFBEFE"/>
</linearGradient>
</defs>
</svg>
