<svg width="45" height="45" viewBox="0 0 45 45" fill="none" xmlns="http://www.w3.org/2000/svg">
<g id="paragraph_5358672 1">
<g id="Group">
<path id="Vector" d="M38.4375 8.4375H6.5625C5.00885 8.4375 3.75 9.69635 3.75 11.25C3.75 12.8036 5.00885 14.0625 6.5625 14.0625H38.4375C39.9911 14.0625 41.25 12.8036 41.25 11.25C41.25 9.69635 39.9911 8.4375 38.4375 8.4375Z" fill="white"/>
<path id="Vector_2" d="M33.1247 19.6875H6.5625C5.00885 19.6875 3.75 20.9464 3.75 22.5C3.75 24.0536 5.00885 25.3125 6.5625 25.3125H33.1247C34.6783 25.3125 35.9372 24.0536 35.9372 22.5C35.9372 20.9464 34.6783 19.6875 33.1247 19.6875Z" fill="white"/>
<path id="Vector_3" d="M22.5 30.9375H6.5625C5.00885 30.9375 3.75 32.1964 3.75 33.75C3.75 35.3036 5.00885 36.5625 6.5625 36.5625H22.5C24.0536 36.5625 25.3125 35.3036 25.3125 33.75C25.3125 32.1964 24.0536 30.9375 22.5 30.9375Z" fill="white"/>
</g>
</g>
</svg>
