<svg width="32" height="32" viewBox="0 0 32 32" fill="none" xmlns="http://www.w3.org/2000/svg">
<g clip-path="url(#clip0_2_4652)">
<path fill-rule="evenodd" clip-rule="evenodd" d="M15.5277 31.0555C6.96571 31.0555 0 24.0898 0 15.5277C0 6.96571 6.96571 0 15.5277 0C24.0898 0 31.0555 6.96571 31.0555 15.5277C31.0555 24.0898 24.0898 31.0555 15.5277 31.0555ZM23.5802 20.9825C23.7716 20.9825 23.9275 20.8268 23.9275 20.6353V10.8869L16.0271 17.1606C15.8809 17.2768 15.7042 17.3348 15.5277 17.3348C15.3511 17.3348 15.1745 17.2767 15.0282 17.1606L7.12796 10.8869V20.6353C7.12796 20.8268 7.28378 20.9825 7.47521 20.9825H23.5802ZM22.3695 10.073L15.5277 15.5061L8.68589 10.073H22.3695ZM25.5338 10.4202V20.6354C25.5338 21.7126 24.6574 22.589 23.5802 22.589H7.47521C6.39797 22.589 5.52169 21.7126 5.52169 20.6354V10.4202C5.52169 9.34303 6.39804 8.46668 7.47521 8.46668H23.5802C24.6574 8.46662 25.5338 9.34303 25.5338 10.4202Z" fill="#354B99"/>
</g>
<defs>
<clipPath id="clip0_2_4652">
<rect width="31.0555" height="31.0555" fill="white"/>
</clipPath>
</defs>
</svg>
