<svg width="32" height="32" viewBox="0 0 32 32" fill="none" xmlns="http://www.w3.org/2000/svg">
<path d="M31.0555 15.5277C31.0555 6.95183 24.1037 0 15.5277 0C6.95183 0 0 6.95183 0 15.5277C0 23.2778 5.6774 29.7028 13.1008 30.8668V20.0158H9.15792V15.5277H13.1008V12.107C13.1008 8.21475 15.4196 6.06617 18.9668 6.06617C20.6668 6.06617 22.4428 6.36982 22.4428 6.36982V10.1908H20.4851C18.5574 10.1908 17.9547 11.387 17.9547 12.6154V15.5277H22.261L21.5732 20.0158H17.9547V30.8668C25.3781 29.7028 31.0555 23.2778 31.0555 15.5277Z" fill="#354B99"/>
<path d="M21.5709 20.0158L22.2588 15.5277H17.9524V12.6154C17.9524 11.387 18.5528 10.1908 20.4828 10.1908H22.4405V6.36982C22.4405 6.36982 20.6646 6.06616 18.9646 6.06616C15.4173 6.06616 13.0985 8.21474 13.0985 12.107V15.5277H9.15564V20.0158H13.0985V30.8668C13.8899 30.9911 14.6996 31.0555 15.5255 31.0555C16.3513 31.0555 17.1611 30.9911 17.9524 30.8668V20.0158H21.5709Z" fill="white"/>
</svg>
