<svg width="46" height="46" viewBox="0 0 46 46" fill="none" xmlns="http://www.w3.org/2000/svg">
<g clip-path="url(#clip0_66_677)">
<path d="M23.9703 22.0733C23.9627 22.0653 23.9606 22.0548 23.9529 22.0471L16.2619 14.356V9.52343C16.2619 9.1654 16.1198 8.82328 15.8671 8.57055L7.78117 0.394856C7.39691 0.0106846 6.81652 -0.106472 6.31241 0.102774C5.80838 0.310673 5.48063 0.802927 5.48063 1.34774V5.39071H1.34782C0.803098 5.39062 0.310844 5.71828 0.102945 6.22239C-0.106301 6.72642 0.00950771 7.30555 0.395117 7.69116L8.5709 15.8668C8.82363 16.1196 9.16575 16.2617 9.52369 16.2617H14.3563L22.0473 23.9527C22.055 23.9604 22.0655 23.9626 22.0734 23.9701C22.5981 24.4709 23.3951 24.4776 23.9268 23.9701C24.4867 23.4357 24.4741 22.6011 23.9703 22.0733Z" fill="white"/>
<path d="M23.0003 0.000244141C19.552 0.000244141 16.2917 0.877568 13.3558 2.24796L17.4898 6.38203C19.2249 5.80505 21.0741 5.48071 23.0004 5.48071C32.6603 5.48062 40.5197 13.3402 40.5197 23.0001C40.5197 32.66 32.6603 40.5195 23.0003 40.5195C13.3403 40.5195 5.48087 32.6601 5.48087 23.0001C5.48087 21.0738 5.80529 19.2246 6.38218 17.4895L2.24811 13.3554C0.877902 16.2914 0.000488281 19.5518 0.000488281 23.0001C0.000488281 35.6329 10.3675 46 23.0003 46C35.6331 46 46.0002 35.6329 46.0002 23.0001C46.0002 10.3672 35.6333 0.000244141 23.0003 0.000244141Z" fill="white"/>
<path d="M22.9999 10.8712C21.5754 10.8712 20.2278 11.1632 18.9569 11.6163V13.2401L22.0725 16.3556C22.3785 16.3129 22.6823 16.2618 22.9999 16.2618C26.7152 16.2618 29.7382 19.2848 29.7382 23.0001C29.7382 26.7154 26.7152 29.7384 22.9999 29.7384C19.2846 29.7384 16.2616 26.7154 16.2616 23.0001C16.2616 22.6824 16.3127 22.3786 16.3554 22.0727L13.24 18.9571H11.6162C11.1631 20.2279 10.8711 21.5756 10.8711 23C10.8711 29.6883 16.3118 35.1288 22.9999 35.1288C29.6881 35.1288 35.1288 29.6883 35.1288 23C35.1288 16.3118 29.6881 10.8712 22.9999 10.8712Z" fill="white"/>
</g>
<defs>
<clipPath id="clip0_66_677">
<rect width="46" height="46" fill="white"/>
</clipPath>
</defs>
</svg>
