<svg width="143" height="136" viewBox="0 0 143 136" fill="none" xmlns="http://www.w3.org/2000/svg">
<path d="M87.6605 85.8009C72.6229 99.2718 57.1633 109.344 44.3509 114.754C37.94 117.461 32.2447 118.978 27.626 119.201C22.9969 119.425 19.6126 118.347 17.5726 116.07C15.5326 113.792 14.832 110.31 15.5616 105.734C16.2896 101.167 18.4217 95.6724 21.815 89.5968C28.5966 77.4544 40.302 63.1917 55.3396 49.7208C70.3773 36.2499 85.8369 26.178 98.6493 20.7679C105.06 18.0609 110.755 16.5437 115.374 16.3206C120.003 16.0969 123.388 17.1748 125.428 19.4521C127.468 21.7294 128.168 25.2115 127.439 29.7882C126.711 34.3546 124.578 39.8493 121.185 45.9249C114.404 58.0673 102.698 72.3301 87.6605 85.8009Z" stroke="#354B99" stroke-width="2"/>
<ellipse cx="52.3582" cy="51.7113" rx="29.9793" ry="30.0497" fill="#354B99"/>
<circle cx="77.6222" cy="95.3429" r="15.2712" fill="#354B99"/>
<ellipse cx="109.22" cy="64.449" rx="22.5197" ry="22.3789" fill="#354B99"/>
</svg>
