<svg width="32" height="32" viewBox="0 0 32 32" fill="none" xmlns="http://www.w3.org/2000/svg">
<path d="M15.5277 31.0555C24.1035 31.0555 31.0555 24.1035 31.0555 15.5277C31.0555 6.95201 24.1035 0 15.5277 0C6.95201 0 0 6.95201 0 15.5277C0 24.1035 6.95201 31.0555 15.5277 31.0555Z" fill="#354B99"/>
<path fill-rule="evenodd" clip-rule="evenodd" d="M22.9972 8.24925C21.1384 6.38822 18.6632 5.36224 16.0292 5.36224C10.6003 5.36224 6.1812 9.77902 6.1789 15.208C6.1789 16.9425 6.63208 18.6379 7.49474 20.1308L6.09839 25.2332L11.3203 23.8644C12.7581 24.6488 14.3798 25.0629 16.0269 25.0629H16.0315C21.4605 25.0629 25.8796 20.6461 25.8819 15.2149C25.8819 12.5832 24.8582 10.1103 22.9995 8.24925H22.9972ZM16.0292 23.3997H16.0269C14.557 23.3997 13.1169 23.0041 11.8609 22.2587L11.5619 22.0816L8.4632 22.8936L9.29135 19.8732L9.09581 19.5626C8.27687 18.2606 7.84439 16.7539 7.84439 15.208C7.84439 10.6946 11.5181 7.02314 16.0361 7.02314C18.2238 7.02314 20.2781 7.87659 21.824 9.42246C23.3698 10.9706 24.221 13.0249 24.2187 15.2126C24.2187 19.726 20.5449 23.3974 16.0315 23.3974L16.0292 23.3997ZM20.5196 17.2691C20.2735 17.1449 19.0635 16.5514 18.838 16.4686C18.6126 16.3858 18.4493 16.3444 18.2836 16.5928C18.1203 16.839 17.6487 17.3934 17.5038 17.5567C17.3612 17.72 17.2163 17.7407 16.9701 17.6188C16.724 17.4946 15.9303 17.2369 14.9918 16.3973C14.2602 15.744 13.7656 14.9388 13.623 14.6927C13.4804 14.4465 13.6069 14.3131 13.7311 14.1912C13.8416 14.0808 13.9773 13.9037 14.0992 13.761C14.2211 13.6184 14.2625 13.5149 14.3453 13.3516C14.4282 13.1882 14.3868 13.0433 14.3246 12.9214C14.2625 12.7972 13.7702 11.5871 13.5655 11.0949C13.3654 10.6141 13.1629 10.6808 13.0111 10.6716C12.8685 10.6647 12.7029 10.6624 12.5395 10.6624C12.3762 10.6624 12.1093 10.7245 11.8839 10.9706C11.6585 11.2168 11.0236 11.8126 11.0236 13.0226C11.0236 14.2326 11.9046 15.4035 12.0288 15.5668C12.1507 15.7302 13.7633 18.2169 16.234 19.282C16.8206 19.535 17.2807 19.6869 17.6372 19.7996C18.2261 19.9859 18.7644 19.9606 19.1877 19.8962C19.6616 19.8249 20.6439 19.3004 20.8486 18.7253C21.0533 18.1502 21.0533 17.6579 20.9912 17.5544C20.9291 17.4509 20.7658 17.3911 20.5196 17.2668V17.2691Z" fill="white"/>
</svg>
