<svg width="75" height="75" viewBox="0 0 75 75" fill="none" xmlns="http://www.w3.org/2000/svg">
<path d="M37.4998 14.9337C17.4886 14.9337 1.7449 35.2183 1.08473 36.0814L0 37.4998L1.08473 38.9182C1.7449 39.7813 17.4886 60.0659 37.4998 60.0659C57.5108 60.0659 73.2548 39.7813 73.915 38.9182L74.9997 37.4998L73.915 36.0814C73.2548 35.2183 57.5108 14.9337 37.4998 14.9337ZM37.4998 55.3973C22.6719 55.3973 9.82263 41.9573 5.96834 37.4982C9.81702 33.0361 22.6405 19.6029 37.4998 19.6029C52.3265 19.6029 65.1746 33.0401 69.0298 37.5001C65.173 41.9617 52.3253 55.3973 37.4998 55.3973ZM37.4998 21.1588C28.4896 21.1588 21.1589 28.4895 21.1589 37.4998C21.1589 46.51 28.4896 53.8408 37.4998 53.8408C46.5101 53.8408 53.8408 46.51 53.8408 37.4998C53.8408 28.4895 46.5104 21.1588 37.4998 21.1588ZM37.4998 49.1722C31.0637 49.1722 25.8277 43.9363 25.8277 37.5001C25.8277 31.064 31.0637 25.828 37.4998 25.828C43.936 25.828 49.172 31.064 49.172 37.5001C49.172 43.9363 43.936 49.1722 37.4998 49.1722ZM43.0022 31.9977C44.41 33.4058 45.2813 35.3512 45.2813 37.5001C45.2813 41.7976 41.7974 45.2815 37.4998 45.2815C33.2023 45.2815 29.7184 41.7976 29.7184 37.5001C29.7184 35.3515 30.5896 33.4062 31.9975 31.9977L37.4998 37.5001L43.0022 31.9977Z" fill="white"/>
</svg>
