<svg width="32" height="32" viewBox="0 0 32 32" fill="none" xmlns="http://www.w3.org/2000/svg">
<circle cx="15.6428" cy="15.6428" r="15.6428" fill="#354B99"/>
<g clip-path="url(#clip0_2_4662)">
<path d="M25.3039 15.7564C25.3039 18.1177 25.3039 20.4791 25.3039 22.841C25.3039 24.3472 24.3471 25.302 22.8373 25.302C18.1136 25.3025 13.3893 25.3025 8.66559 25.302C7.17494 25.3015 6.21156 24.3402 6.21106 22.8535C6.21106 18.1222 6.21106 13.391 6.21106 8.65967C6.21156 7.17254 7.17394 6.21219 8.66559 6.21168C13.3979 6.21118 18.1297 6.21118 22.862 6.21168C24.338 6.21168 25.3029 7.17506 25.3034 8.64657C25.3044 11.0165 25.3034 13.3864 25.3034 15.7558L25.3039 15.7564ZM12.0321 21.5528C12.0462 21.5739 12.0603 21.5951 12.0744 21.6157C12.4672 21.4611 12.8686 21.3261 13.2503 21.1479C14.0662 20.7671 14.8548 20.749 15.724 21.0527C18.6363 22.072 21.4655 21.8363 24.1799 20.3411C24.3541 20.2454 24.4005 20.1356 24.4 19.9473C24.3944 16.1794 24.3959 12.411 24.3959 8.64305C24.3959 8.58463 24.3969 8.52571 24.3944 8.46729C24.3587 7.69326 23.7921 7.12571 23.0166 7.1242C19.6667 7.11816 16.3162 7.12067 12.9663 7.1247C12.8827 7.1247 12.7795 7.15341 12.7185 7.20628C11.0869 8.63096 10.0767 10.3981 9.88782 12.5721C9.68034 14.9627 10.473 17.0214 12.1258 18.7417C12.5171 19.1486 12.6178 19.5897 12.568 20.113C12.5181 20.6397 12.3353 21.1166 12.0326 21.5522L12.0321 21.5528ZM11.4545 7.12168C10.4458 7.12168 9.493 7.11816 8.54019 7.12269C7.69969 7.12672 7.12106 7.70334 7.12056 8.55089C7.11753 13.3577 7.11703 18.164 7.12056 22.9709C7.12106 23.8139 7.70422 24.391 8.54825 24.391C13.3561 24.3935 18.1634 24.3935 22.9713 24.391C23.8123 24.391 24.3854 23.8114 24.3944 22.9653C24.4 22.4627 24.3959 21.9607 24.3944 21.4581C24.3944 21.4057 24.3818 21.3528 24.3733 21.2838C24.2756 21.3307 24.2005 21.3654 24.1265 21.4022C22.7542 22.0921 21.3013 22.4718 19.7674 22.5519C18.2077 22.6335 16.6934 22.4174 15.238 21.8504C14.7229 21.6499 14.249 21.6716 13.7645 21.9163C13.5112 22.0443 13.2463 22.15 12.9834 22.2578C12.2517 22.5579 11.4958 22.633 10.7183 22.4899C10.4997 22.4497 10.3481 22.3328 10.3169 22.1022C10.2882 21.8886 10.3647 21.7114 10.5677 21.6308C11.2888 21.3438 11.5582 20.7545 11.659 20.0445C11.6977 19.7725 11.6363 19.5545 11.4349 19.342C10.0278 17.8629 9.17372 16.1129 8.98336 14.0738C8.76983 11.789 9.40638 9.73736 10.7963 7.91736C10.9932 7.65952 11.2098 7.41578 11.454 7.12118L11.4545 7.12168Z" fill="white"/>
<path d="M14.0253 12.5811C13.5333 12.5811 13.0917 12.5847 12.6505 12.5801C12.3433 12.5771 12.157 12.4311 12.1263 12.1838C12.0935 11.9179 12.2607 11.6847 12.5276 11.6807C13.3143 11.6696 14.1019 11.6651 14.8885 11.6817C15.244 11.6893 15.4087 12.0624 15.2143 12.3883C14.9655 12.8047 14.7027 13.2126 14.4458 13.6241C14.1059 14.1685 13.7655 14.7129 13.3968 15.3026C13.8239 15.3026 14.2036 15.3026 14.5833 15.3026C14.6835 15.3026 14.7848 15.2975 14.8845 15.3066C15.1302 15.3288 15.3045 15.5166 15.3065 15.7533C15.308 15.99 15.1358 16.2005 14.8915 16.204C14.113 16.2151 13.3339 16.2196 12.5558 16.204C12.1832 16.1965 12.0114 15.8198 12.2154 15.4844C12.5589 14.9198 12.9139 14.3624 13.2639 13.8019C13.5071 13.4126 13.7499 13.0233 14.0258 12.5811H14.0253Z" fill="white"/>
<path d="M17.6402 16.0207C16.5267 16.561 15.5084 15.8157 15.3417 14.9525C15.2254 14.3497 15.3931 13.8376 15.8479 13.4347C16.3046 13.0298 16.8369 12.9301 17.4156 13.1335C17.553 13.1819 17.6512 13.2131 17.7953 13.1058C18.0717 12.9004 18.465 13.0993 18.4716 13.4478C18.4867 14.2263 18.4892 15.0054 18.465 15.7835C18.461 15.9169 18.3256 16.0881 18.2032 16.1662C17.9997 16.2956 17.8028 16.1848 17.6402 16.0207ZM16.8963 13.9448C16.5131 13.9433 16.2104 14.244 16.2125 14.6242C16.2145 15.0004 16.5267 15.3071 16.9029 15.302C17.2735 15.297 17.5656 15.0034 17.5702 14.6307C17.5747 14.244 17.2821 13.9463 16.8968 13.9448H16.8963Z" fill="white"/>
<path d="M21.9107 13.0368C22.7779 13.0434 23.4899 13.7615 23.4854 14.6262C23.4814 15.4989 22.7517 16.2161 21.8744 16.209C21.0122 16.2025 20.2966 15.4773 20.3012 14.6156C20.3062 13.7374 21.0263 13.0303 21.9107 13.0368ZM22.5729 14.6232C22.5749 14.2445 22.2707 13.9433 21.8885 13.9448C21.5128 13.9468 21.2243 14.2314 21.2167 14.6066C21.2092 14.9903 21.5038 15.2965 21.8845 15.301C22.2627 15.3056 22.5709 15.0019 22.5729 14.6227V14.6232Z" fill="white"/>
<path d="M19.8435 13.7208C19.8435 14.3729 19.8455 15.0256 19.8425 15.6778C19.8409 16.0242 19.6712 16.2166 19.3847 16.2121C19.1102 16.2075 18.9365 16.0142 18.936 15.6878C18.933 14.375 18.933 13.0616 18.936 11.7482C18.9365 11.4148 19.1228 11.2073 19.4003 11.2114C19.6717 11.2154 19.8409 11.4103 19.8425 11.7381C19.846 12.3988 19.8435 13.0596 19.8435 13.7203V13.7208Z" fill="white"/>
</g>
<defs>
<clipPath id="clip0_2_4662">
<rect width="19.0934" height="19.0914" fill="white" transform="translate(6.21106 6.21112)"/>
</clipPath>
</defs>
</svg>
